<?xml version="1.0" encoding="utf-8"?>
<!-- Generator: Adobe Illustrator 26.1.0, SVG Export Plug-In . SVG Version: 6.00 Build 0)  -->
<svg version="1.1" id="Calque_1" xmlns="http://www.w3.org/2000/svg" xmlns:xlink="http://www.w3.org/1999/xlink" x="0px" y="0px"
	 viewBox="0 0 177.8 155.29" style="enable-background:new 0 0 177.8 155.29;" xml:space="preserve">
<style type="text/css">
	.st0{fill:#662483;}
</style>
<path class="st0" d="M169.06,70.37c-0.75,0-1.48,0.11-2.17,0.28l-32.14-55.67c1.62-1.59,2.62-3.79,2.62-6.24
	c0-4.83-3.91-8.74-8.74-8.74c-4.19,0-7.68,2.94-8.54,6.87H59C58.14,2.94,54.64,0,50.46,0c-4.83,0-8.74,3.91-8.74,8.74
	c0,2.03,0.7,3.88,1.85,5.37L10.92,70.66c-0.7-0.18-1.42-0.28-2.17-0.28C3.91,70.37,0,74.29,0,79.12c0,4.83,3.91,8.74,8.74,8.74
	c1.1,0,2.14-0.21,3.11-0.58l31.38,54.35c-0.95,1.4-1.51,3.09-1.51,4.91c0,4.83,3.91,8.74,8.74,8.74c3.81,0,7.04-2.44,8.24-5.83
	h61.69c1.2,3.4,4.43,5.83,8.24,5.83c4.83,0,8.74-3.91,8.74-8.74c0-2.25-0.86-4.29-2.25-5.84l30.84-53.42
	c0.97,0.37,2.01,0.58,3.11,0.58c4.83,0,8.74-3.91,8.74-8.74C177.8,74.29,173.89,70.37,169.06,70.37z M59,10.61h61.09
	c0.41,1.88,1.42,3.52,2.82,4.74l-10.8,19.7c-8.8-4.89-18.74-6.78-29.98-5.41c-5.8,0.71-11.17,2.49-16.01,5.07L55.64,15.78
	C57.31,14.54,58.54,12.72,59,10.61z M14.27,72.34l32.22-55.81c1.19,0.61,2.54,0.96,3.97,0.96c1.14,0,2.22-0.22,3.22-0.62
	l10.48,18.95c-14.72,8.79-23.95,25.3-23.93,42.34l-22.81-0.16C17.12,75.72,15.96,73.72,14.27,72.34z M50.46,137.8
	c-1.62,0-3.13,0.45-4.42,1.21L14.99,85.23c1.3-1.32,2.17-3.06,2.42-5l22.86,0.16c0.32,6.53,2,13.09,5.29,19.27
	c1.51,2.85,3.35,3.21,6.38,1.99c-6.65-10.73-8.75-22.15-5.89-34.18c2.88-12.1,9.95-21.31,20.62-27.76
	c17.93-10.84,40.73-5.63,50.07,4.6C99.99,55.81,96.54,73.9,93.26,92.12c-3.86-15.06-3.71-30.22-2.18-45.36
	c-9.26-1.5-11.49-0.04-13.05,8.2c-0.2,1.03-0.37,2.08-0.67,3.09c-3.43,11.56-6.34,23.31-10.52,34.59
	c-2.57,6.93-7.49,12.72-15.31,15.18c0.03,0.47-0.01,0.63,0.05,0.71c0.3,0.43,0.6,0.87,0.95,1.25c3.88,4.15,8.03,7.5,12.46,10.06
	l-10.31,19.06C53.43,138.2,51.99,137.8,50.46,137.8z M119.92,145.71H59.16c-0.2-2.15-1.18-4.07-2.66-5.48l10.46-19.33
	c8.94,4.63,18.98,6.16,30.13,4.57c5.06-0.72,9.79-2.3,14.11-4.54l11.07,19.6C120.97,141.92,120.11,143.72,119.92,145.71z
	 M132.06,138.5c-1.06-0.45-2.22-0.71-3.44-0.71c-1.68,0-3.25,0.48-4.58,1.3l-10.87-19.25c14.02-8.18,23.21-23.56,24.31-39.62h22.91
	c0.25,1.93,1.12,3.67,2.42,5L132.06,138.5z M160.4,77.99h-22.82c0.16-7.7-1.54-15.47-5.5-22.62c-1.59-2.86-3.42-3.06-6.04-1.7
	c13.93,23.51,5.15,48.35-12.43,60.35c-18.36,12.53-41.72,7.97-52.74-3.06c12.55-8.24,16.96-21.43,20.94-34.91
	c0.36,1.2,0.37,2.25,0.49,3.29c0.9,8.22,1.24,16.57,5.3,24.1c2.96,5.5,7.71,7.78,12.99,6.5c1.81-0.44,2.52-1,2.51-3.11
	c-0.05-6.57-0.38-13.24,0.59-19.7c2.41-16.17,6.13-31.88,22.9-40.32c-3.9-4.32-8.07-7.87-12.54-10.63l10.74-19.6
	c1.16,0.57,2.46,0.9,3.84,0.9c1.04,0,2.03-0.19,2.95-0.52l31.97,55.37C161.85,73.72,160.69,75.72,160.4,77.99z"/>
</svg>
